<svg width="14" height="14" viewBox="0 0 20 20" fill="none" xmlns="http://www.w3.org/2000/svg">
<path d="M17.8934 2.82627C17.7582 2.50063 17.4994 2.24185 17.1737 2.10662C17.0135 2.03833 16.8415 2.00211 16.6673 2L3.34042 2C2.98697 2 2.64799 2.14041 2.39806 2.39034C2.14814 2.64026 2.00773 2.97924 2.00773 3.33269C2.00773 3.68614 2.14814 4.02512 2.39806 4.27504C2.64799 4.52497 2.98697 4.66538 3.34042 4.66538H13.4555L2.39421 15.7134C2.2693 15.8373 2.17015 15.9847 2.10249 16.1471C2.03483 16.3095 2 16.4837 2 16.6596C2 16.8355 2.03483 17.0097 2.10249 17.1721C2.17015 17.3345 2.2693 17.4819 2.39421 17.6058C2.5181 17.7307 2.66549 17.8298 2.8279 17.8975C2.9903 17.9652 3.16449 18 3.34042 18C3.51635 18 3.69054 17.9652 3.85294 17.8975C4.01534 17.8298 4.16274 17.7307 4.28663 17.6058L15.3346 6.54447V16.6596C15.3346 17.013 15.475 17.352 15.725 17.6019C15.9749 17.8519 16.3139 17.9923 16.6673 17.9923C17.0208 17.9923 17.3597 17.8519 17.6097 17.6019C17.8596 17.352 18 17.013 18 16.6596V3.33269C17.9979 3.15854 17.9617 2.98649 17.8934 2.82627Z" fill="black"/>
</svg>
